<svg width="20" height="20" viewBox="0 0 20 20" fill="none" xmlns="http://www.w3.org/2000/svg">
<path d="M17 2H15V1C15 0.734784 14.8946 0.48043 14.7071 0.292893C14.5196 0.105357 14.2652 0 14 0C13.7348 0 13.4804 0.105357 13.2929 0.292893C13.1053 0.48043 13 0.734784 13 1V2H6.99998V1C6.99998 0.734784 6.89463 0.48043 6.70709 0.292893C6.51956 0.105357 6.2652 0 5.99998 0C5.73477 0 5.48041 0.105357 5.29288 0.292893C5.10534 0.48043 4.99998 0.734784 4.99998 1V2H2.99998C2.20434 2 1.44127 2.31607 0.878664 2.87868C0.316055 3.44129 -1.52588e-05 4.20435 -1.52588e-05 5V17C-1.52588e-05 17.7956 0.316055 18.5587 0.878664 19.1213C1.44127 19.6839 2.20434 20 2.99998 20H17C17.7956 20 18.5587 19.6839 19.1213 19.1213C19.6839 18.5587 20 17.7956 20 17V5C20 4.20435 19.6839 3.44129 19.1213 2.87868C18.5587 2.31607 17.7956 2 17 2ZM18 17C18 17.2652 17.8946 17.5196 17.7071 17.7071C17.5196 17.8946 17.2652 18 17 18H2.99998C2.73477 18 2.48041 17.8946 2.29288 17.7071C2.10534 17.5196 1.99998 17.2652 1.99998 17V10H18V17ZM18 8H1.99998V5C1.99998 4.73478 2.10534 4.48043 2.29288 4.29289C2.48041 4.10536 2.73477 4 2.99998 4H4.99998V5C4.99998 5.26522 5.10534 5.51957 5.29288 5.70711C5.48041 5.89464 5.73477 6 5.99998 6C6.2652 6 6.51956 5.89464 6.70709 5.70711C6.89463 5.51957 6.99998 5.26522 6.99998 5V4H13V5C13 5.26522 13.1053 5.51957 13.2929 5.70711C13.4804 5.89464 13.7348 6 14 6C14.2652 6 14.5196 5.89464 14.7071 5.70711C14.8946 5.51957 15 5.26522 15 5V4H17C17.2652 4 17.5196 4.10536 17.7071 4.29289C17.8946 4.48043 18 4.73478 18 5V8Z" fill="#7D7D7D"/>
</svg>
